<?xml version="1.0" encoding="UTF-8" ?>
<!DOCTYPE svg PUBLIC "-//W3C//DTD SVG 1.1//EN" "http://www.w3.org/Graphics/SVG/1.1/DTD/svg11.dtd">
<svg width="72pt" height="72pt" viewBox="0 0 72 72" version="1.1" xmlns="http://www.w3.org/2000/svg">
<path fill="#ffffff" d=" M 0.00 0.00 L 72.00 0.00 L 72.00 72.00 L 0.00 72.00 L 0.00 0.00 Z" />
<path fill="#02529b" d=" M 4.95 21.32 C 7.23 14.18 13.47 8.30 21.23 8.04 C 16.03 12.74 10.49 17.03 4.95 21.32 Z" />
<path fill="#03418b" d=" M 16.57 13.56 C 19.42 11.63 22.71 6.49 26.36 9.80 C 19.45 15.41 12.20 20.66 5.82 26.87 C 5.22 27.41 4.03 28.49 3.43 29.03 C 3.43 27.96 3.43 25.82 3.42 24.75 C 7.50 20.66 12.26 17.38 16.57 13.56 Z" />
<path fill="#06335f" d=" M 26.28 11.10 C 27.69 9.31 29.61 11.24 31.05 11.86 C 27.74 14.22 24.52 16.71 21.54 19.48 C 16.81 19.83 14.23 23.92 11.60 27.29 L 11.57 27.65 C 8.66 30.09 6.05 32.94 2.64 34.71 C 2.69 33.73 2.78 31.76 2.83 30.78 C 10.25 23.77 18.82 18.07 26.28 11.10 Z" />
<path fill="#052043" d=" M 23.17 19.39 C 26.29 17.42 28.83 14.50 32.20 12.98 C 32.35 13.71 32.64 15.15 32.79 15.88 C 30.56 17.85 28.38 20.06 25.54 21.15 C 25.16 20.86 24.38 20.29 23.99 20.00 L 23.17 19.39 Z" />
<path fill="#22170a" d=" M 27.51 21.81 C 29.91 20.19 32.01 18.19 34.04 16.15 C 34.63 17.12 35.22 18.10 35.82 19.08 C 33.58 21.06 31.35 23.06 28.95 24.85 L 28.72 24.34 C 28.35 23.48 27.95 22.64 27.51 21.81 Z" />
<path fill="#0493de" d=" M 11.60 27.29 C 14.23 23.92 16.81 19.83 21.54 19.48 C 22.15 19.61 23.38 19.87 23.99 20.00 C 24.38 20.29 25.16 20.86 25.54 21.15 C 26.56 22.26 27.40 23.56 28.72 24.34 L 28.95 24.85 C 23.52 29.28 18.03 33.64 12.63 38.11 C 12.08 37.37 11.55 36.62 11.02 35.87 C 10.99 35.38 10.93 34.41 10.90 33.93 C 11.06 32.32 11.20 30.71 11.35 29.10 C 11.44 28.62 11.51 28.14 11.57 27.65 L 11.60 27.29 Z" />
<path fill="#0493de" d=" M 42.96 28.35 C 42.45 24.22 45.18 20.75 48.95 19.40 C 50.33 20.26 51.72 21.11 53.12 21.94 C 54.21 24.63 54.85 27.51 54.14 30.40 L 53.63 29.18 C 53.01 27.61 52.39 26.04 51.62 24.54 C 50.50 23.73 49.46 22.09 47.87 22.59 C 46.77 23.73 45.85 25.02 44.88 26.26 L 47.33 26.23 L 48.16 26.24 C 47.20 26.76 46.23 27.27 45.25 27.75 C 44.68 27.90 43.53 28.20 42.96 28.35 Z" />
<path fill="#ffffff" d=" M 47.87 22.59 C 49.46 22.09 50.50 23.73 51.62 24.54 C 50.52 25.96 48.01 26.84 48.11 28.89 C 49.86 29.33 51.06 27.26 52.58 26.67 C 51.64 28.06 50.75 29.51 49.55 30.71 C 48.44 30.64 47.37 30.28 46.32 29.94 C 46.05 29.40 45.52 28.30 45.25 27.75 C 46.23 27.27 47.20 26.76 48.16 26.24 C 48.56 25.99 49.37 25.50 49.78 25.25 C 49.97 22.42 45.90 24.09 47.33 26.23 L 44.88 26.26 C 45.85 25.02 46.77 23.73 47.87 22.59 Z" />
<path fill="#132c38" d=" M 47.33 26.23 C 45.90 24.09 49.97 22.42 49.78 25.25 C 49.37 25.50 48.56 25.99 48.16 26.24 L 47.33 26.23 Z" />
<path fill="#32312e" d=" M 51.62 24.54 C 52.39 26.04 53.01 27.61 53.63 29.18 C 53.52 30.64 52.70 31.90 52.18 33.23 C 49.92 34.39 45.66 35.13 45.45 31.58 C 45.67 31.17 46.10 30.35 46.32 29.94 C 47.37 30.28 48.44 30.64 49.55 30.71 C 50.75 29.51 51.64 28.06 52.58 26.67 C 51.06 27.26 49.86 29.33 48.11 28.89 C 48.01 26.84 50.52 25.96 51.62 24.54 Z" />
<path fill="#22170a" d=" M 24.67 33.18 C 26.76 31.24 28.97 29.37 31.44 27.92 C 32.14 29.29 32.11 30.74 31.60 32.16 C 29.89 33.24 28.29 34.51 27.01 36.09 C 26.68 36.14 26.04 36.23 25.71 36.27 L 25.29 36.26 C 25.14 35.49 24.83 33.95 24.67 33.18 Z" />
<path fill="#055491" d=" M 42.96 28.35 C 43.53 28.20 44.68 27.90 45.25 27.75 C 45.52 28.30 46.05 29.40 46.32 29.94 C 46.10 30.35 45.67 31.17 45.45 31.58 L 45.15 32.15 C 44.42 30.88 43.68 29.62 42.96 28.35 Z" />
<path fill="#0f2a4b" d=" M 3.06 35.96 C 5.82 33.67 8.51 31.29 11.35 29.10 C 11.20 30.71 11.06 32.32 10.90 33.93 C 8.53 35.90 6.20 37.92 3.78 39.83 C 3.60 38.87 3.24 36.93 3.06 35.96 Z" />
<path fill="#0466af" d=" M 8.00 47.51 C 13.52 42.69 19.11 37.96 24.67 33.18 C 24.83 33.95 25.14 35.49 25.29 36.26 C 25.42 38.52 25.46 40.79 25.36 43.06 C 25.34 43.83 25.23 44.58 25.04 45.33 C 23.43 49.39 19.84 51.93 15.71 53.00 C 15.37 52.90 14.69 52.72 14.34 52.63 C 12.87 52.17 11.40 51.69 9.93 51.22 C 9.77 50.91 9.44 50.30 9.28 49.99 C 8.86 49.16 8.43 48.33 8.00 47.51 Z" />
<path fill="#052043" d=" M 29.11 35.12 C 30.27 33.89 31.71 33.13 33.39 32.90 C 33.18 34.45 32.94 35.99 32.66 37.53 C 31.59 37.83 30.52 38.13 29.45 38.43 C 29.11 39.34 28.76 40.25 28.40 41.15 C 27.15 41.37 26.24 42.22 25.36 43.06 C 25.46 40.79 25.42 38.52 25.29 36.26 L 25.71 36.27 C 25.97 36.46 26.48 36.83 26.73 37.02 C 27.53 36.40 28.33 35.77 29.11 35.12 Z" />
<path fill="#22170a" d=" M 10.43 35.05 L 11.02 35.87 C 11.55 36.62 12.08 37.37 12.63 38.11 C 10.06 39.85 7.85 42.03 5.57 44.11 C 5.26 42.79 4.96 41.46 4.68 40.13 C 6.75 38.62 8.67 36.91 10.43 35.05 Z" />
<path fill="#0381c8" d=" M 30.11 39.55 C 32.20 39.57 34.30 39.58 36.39 39.57 C 36.96 44.29 37.67 49.47 41.12 53.04 C 43.16 54.04 45.44 53.32 47.43 52.59 C 50.51 48.85 51.00 43.98 52.31 39.50 C 54.21 39.55 56.11 39.58 58.01 39.61 C 57.76 46.93 56.80 54.52 52.94 60.90 L 52.55 59.47 C 46.47 59.33 40.38 59.64 34.32 59.17 C 31.48 53.02 29.98 46.34 30.11 39.55 Z" />
<path fill="#03418b" d=" M 40.75 39.54 C 42.95 39.53 45.15 39.52 47.36 39.49 C 47.47 42.35 48.03 45.16 48.47 47.97 C 48.52 50.95 45.45 52.84 42.73 52.85 C 41.51 48.51 40.97 44.03 40.75 39.54 Z" />
<path fill="#0b3d85" d=" M 62.87 39.53 C 65.10 39.53 67.32 39.52 69.55 39.52 C 69.13 46.62 67.04 53.61 63.89 59.96 C 61.54 59.88 59.18 59.94 56.86 60.31 C 56.27 59.87 55.68 59.43 55.10 58.98 C 55.87 55.88 57.31 52.99 59.57 50.70 C 62.49 47.77 62.46 43.37 62.87 39.53 Z" />
<path fill="#052043" d=" M 26.66 42.72 C 27.35 42.38 28.74 41.70 29.43 41.36 C 29.40 42.93 29.37 44.50 29.32 46.07 C 26.02 47.77 23.65 50.67 20.78 52.94 C 16.63 55.90 13.50 60.12 8.98 62.59 C 8.25 62.26 6.79 61.59 6.06 61.26 C 7.10 60.17 8.13 59.07 9.18 57.99 C 9.54 57.68 10.25 57.07 10.60 56.76 C 12.32 55.53 13.89 54.08 15.71 53.00 C 19.84 51.93 23.43 49.39 25.04 45.33 C 25.55 44.44 26.09 43.58 26.66 42.72 Z" />
<path fill="#22170a" d=" M 5.11 50.22 C 6.07 49.32 7.04 48.42 8.00 47.51 C 8.43 48.33 8.86 49.16 9.28 49.99 C 8.07 53.03 4.42 55.11 1.66 57.04 C -0.33 53.80 2.63 51.72 5.11 50.22 Z" />
<path fill="#055491" d=" M 10.05 63.21 C 16.60 57.91 22.69 52.07 29.28 46.81 C 29.65 47.68 30.41 49.43 30.78 50.30 C 25.96 54.34 21.40 58.68 16.48 62.59 C 14.80 64.14 11.99 64.31 10.05 63.21 Z" />
<path fill="#052043" d=" M 9.93 51.22 C 11.40 51.69 12.87 52.17 14.34 52.63 C 11.23 55.00 8.25 57.54 5.57 60.41 C 4.55 59.42 3.56 58.41 2.64 57.32 C 5.53 55.89 7.70 53.47 9.93 51.22 Z" />
<path fill="#03418b" d=" M 16.29 63.61 C 21.48 60.06 25.66 55.29 30.84 51.72 C 30.76 56.48 26.51 59.45 23.17 62.16 C 21.27 63.85 18.69 63.90 16.29 63.61 Z" />
<path fill="#08353c" d=" M 34.32 59.17 C 40.38 59.64 46.47 59.33 52.55 59.47 L 52.94 60.90 C 50.01 63.16 46.97 66.51 42.87 65.73 C 39.11 65.14 36.88 61.64 34.32 59.17 Z" />
<path fill="#132c38" d=" M 55.10 58.98 C 55.68 59.43 56.27 59.87 56.86 60.31 C 59.18 59.94 61.54 59.88 63.89 59.96 C 61.59 63.38 57.47 66.62 53.12 65.46 C 52.38 65.14 50.73 65.17 51.45 63.94 C 52.70 62.31 54.01 60.73 55.10 58.98 Z" />
</svg>
